<svg width="241" height="240" viewBox="0 0 241 240" fill="none" xmlns="http://www.w3.org/2000/svg">
<g clip-path="url(#clip0_312_3118)">
<path d="M0 187.137C0.911987 184.102 1.55332 180.955 2.78892 178.055C7.0782 167.959 14.8624 161.83 25.4062 159.088C29.8661 157.928 34.3496 156.844 38.8624 155.895C40.404 155.572 40.8158 154.969 40.8923 153.445C41.01 151.078 40.3628 149.59 38.274 148.102C31.4547 143.232 27.1419 136.447 26.6947 128.115C26.1829 118.57 26.0181 108.908 26.9066 99.4101C28.1657 85.957 40.757 75.3515 54.3721 74.8008C63.1272 74.4433 71.188 75.9609 78.0073 81.8262C78.8839 82.582 79.7253 83.373 80.6314 84.1875C87.8685 66.1113 100.83 55.4765 120.565 55.5937C139.975 55.7109 152.737 66.2871 159.88 84.1465C161.175 83.039 162.416 81.914 163.734 80.8769C177.755 69.791 207.315 72.2461 213.493 97.6875C213.711 98.5898 213.952 99.5273 213.946 100.447C213.835 110.561 214.17 120.709 213.346 130.77C212.775 137.748 208.657 143.578 202.891 147.58C199.802 149.725 199.313 152.045 199.902 155.443C204.344 156.498 208.88 157.629 213.446 158.643C222.978 160.758 230.768 165.527 235.669 174.041C237.687 177.551 238.629 181.676 240.088 185.508C240.306 186.088 240.7 186.598 241.012 187.143V205.857C238.811 209.771 235.14 209.684 231.303 209.637C221.054 209.52 210.798 209.596 200.543 209.596H198.272V230.18C207.292 230.18 215.976 230.174 224.655 230.191C225.661 230.191 226.708 230.221 227.673 230.467C229.744 230.994 231.239 232.945 231.086 234.949C230.927 237.076 229.862 238.658 227.714 239.232C226.749 239.49 225.708 239.52 224.696 239.52C155.114 239.531 85.5267 239.531 15.9451 239.531C15.239 239.531 14.5271 239.561 13.8328 239.479C11.2616 239.162 9.41406 237.17 9.44348 234.809C9.4729 232.424 11.3204 230.514 13.9269 230.227C14.6212 230.15 15.3332 230.18 16.0392 230.18C23.947 230.18 31.8489 230.18 39.7568 230.18C40.5746 230.18 41.3924 230.18 42.4162 230.18V209.596H39.8686C28.6776 209.596 17.4807 209.549 6.28977 209.625C3.30669 209.648 1.11204 208.752 0.0117676 205.852C0 199.611 0 193.371 0 187.137ZM129.537 95.4023C117.099 104.391 103.366 107.895 88.3568 107.133C88.3568 112.389 88.1097 117.299 88.4039 122.18C89.1629 134.73 95.2115 144.141 106.591 149.537C117.788 154.852 128.79 153.686 138.993 146.596C144.329 142.887 148.001 137.818 150.278 131.742C153.267 123.756 151.908 115.5 152.202 107.18C142.235 107.572 134.786 103.67 129.537 95.4023ZM65.8161 187.594C58.9144 192.715 53.972 199.348 52.707 207.844C51.6891 214.646 51.9715 221.643 51.695 228.557C51.6773 229.066 51.8185 229.582 51.8715 229.986H108.385C94.1995 215.859 80.1019 201.82 65.8219 187.594H65.8161ZM188.858 230.068C188.858 225.357 189.105 220.904 188.787 216.486C188.487 212.326 188.04 208.078 186.851 204.105C184.792 197.227 180.503 191.748 175.196 187.992C160.869 202.242 146.759 216.281 132.903 230.062H188.864L188.858 230.068ZM152.29 97.6054C152.031 84.9492 146.895 75.0762 135.868 68.9472C124.689 62.7305 113.257 63.1875 102.554 70.2422C92.8638 76.6347 88.3568 85.998 88.3039 97.6933C98.3946 98.3262 107.809 96.7793 116.676 92.3086C123.118 89.0566 128.52 84.5449 133.244 79.1308C135.392 76.6699 138.263 76.5351 140.27 78.4336C142.27 80.3262 142.258 82.8515 140.193 85.3183C139.099 86.625 137.945 87.8789 136.851 89.1269C140.305 95.5781 145.324 98.3906 152.284 97.6113L152.29 97.6054ZM79.3017 115.295C73.7121 114.023 68.5579 113.602 64.0862 111.633C59.2792 109.523 55.4076 109.482 50.5829 111.615C46.0642 113.613 40.8453 114.029 35.8087 115.166C35.8087 118.6 35.6675 122.332 35.8499 126.059C36.0441 130.031 37.4385 133.646 39.9215 136.811C45.4699 143.871 53.0541 145.477 61.3914 144.357C69.7405 143.238 75.7126 138.562 77.8249 130.412C79.1075 125.461 78.8781 120.117 79.2958 115.295H79.3017ZM161.881 115.148C161.881 118.939 161.51 123.164 161.957 127.307C162.946 136.383 170.106 143.344 179.191 144.404C187.863 145.418 195.589 143.678 201.09 136.225C205.95 129.639 204.75 122.074 204.768 115.195C199.537 114.006 194.359 113.613 189.917 111.603C185.08 109.418 181.203 109.582 176.414 111.65C171.93 113.59 166.794 114.035 161.887 115.148H161.881ZM230.78 200.232C230.78 195.656 231.268 191.32 230.68 187.137C229.491 178.711 224.637 172.529 216.706 169.518C210.916 167.314 204.703 166.23 198.584 164.619C198.272 165.633 198.019 166.359 197.825 167.098C196.042 174.029 194.4 180.996 192.423 187.869C191.635 190.617 192.312 192.721 193.2 195.328C194.759 199.922 197.572 200.443 201.773 200.32C211.452 200.033 221.142 200.227 230.78 200.227V200.232ZM42.0514 164.59C35.8029 166.242 29.5837 167.484 23.6587 169.559C18.1809 171.475 14.3035 175.582 11.7146 180.85C8.68447 187.02 9.49643 193.553 9.44348 199.969C9.80828 200.098 9.94949 200.191 10.0848 200.191C21.2699 200.209 32.4491 200.238 43.6342 200.174C44.2579 200.174 45.1169 199.506 45.4582 198.914C46.5408 197.027 47.4704 195.053 48.3589 193.072C48.6589 192.404 48.9531 191.543 48.7884 190.887C46.6173 182.221 44.3638 173.578 42.0456 164.59H42.0514ZM120.029 214.893C120.218 214.893 120.4 214.898 120.588 214.904C123.783 202.482 126.825 190.02 130.249 177.662C131.815 172.014 132.35 166.395 131.879 160.4C124.13 162.527 116.417 162.492 108.015 160.242C108.597 165.398 108.762 170.15 109.733 174.732C111.245 181.881 113.298 188.918 115.128 195.996C116.758 202.295 118.394 208.6 120.029 214.898V214.893ZM78.8898 105.176C78.9193 97.4179 76.1127 91.1484 69.5346 87.3281C61.2502 82.5176 52.5187 82.5996 44.4167 87.7676C38.2799 91.6816 35.6499 97.7871 35.7793 105.17C41.8926 104.971 47.5292 103.764 52.5187 100.611C55.8254 98.5195 58.6731 98.414 62.0269 100.559C66.9987 103.734 72.653 104.953 78.8898 105.182V105.176ZM204.838 105.158C204.691 97.0429 201.737 90.6328 194.683 86.9062C186.569 82.6172 178.149 82.7344 170.371 87.7148C164.234 91.6465 161.563 97.7285 161.675 105.176C167.659 104.965 173.254 103.857 178.143 100.752C181.709 98.4902 184.71 98.4726 188.275 100.74C193.171 103.852 198.76 104.988 204.838 105.158ZM111.31 218.771C107.662 204.645 104.061 190.693 100.43 176.613C91.7694 178.699 83.4674 180.703 75.136 182.713C87.3095 194.848 99.2242 206.73 111.31 218.777V218.771ZM129.396 218.385C141.44 206.408 153.279 194.631 165.282 182.689C157.015 180.709 148.648 178.705 140.134 176.666C136.522 190.717 132.979 204.463 129.402 218.385H129.396ZM73.9239 155.291C82.1906 157.857 91.081 158.484 98.8476 162.943C99.7832 157.096 99.642 156.744 95.3468 153.656C94.6525 153.158 93.9288 152.648 93.364 152.021C90.0455 148.342 86.7682 144.621 84.4029 141.961C82.1848 143.695 79.7312 146.109 76.8364 147.75C73.918 149.408 73.4473 151.641 73.8004 154.494C73.8298 154.723 73.8768 154.951 73.9298 155.297L73.9239 155.291ZM141.517 162.844C143.9 161.842 145.977 160.711 148.189 160.09C153.596 158.566 159.074 157.301 164.505 155.859C165.299 155.648 166.588 155.092 166.623 154.623C166.747 152.988 167.053 150.732 166.152 149.771C163.152 146.584 159.662 143.859 156.338 140.936C153.72 145.547 150.295 150.229 145.441 153.305C142.017 155.473 140.823 157.963 141.423 161.684C141.47 161.988 141.476 162.299 141.517 162.85V162.844ZM176.061 153.768C176.19 155.707 176.049 157.77 176.502 159.686C178.079 166.348 179.809 172.98 181.609 179.584C181.939 180.797 182.868 181.846 183.515 182.977C186.04 175.189 188.046 167.666 189.858 160.102C190.352 158.039 190.264 155.836 190.435 153.762H176.061V153.768ZM56.3314 182.877C59.3557 180.867 65.0865 158.484 64.1333 153.762H50.0534C50.43 163.793 54.5192 172.963 56.3314 182.877ZM170.553 174.504C169.671 171.111 168.853 167.988 167.994 164.672C162.11 166.113 156.403 167.52 150.69 168.92C150.725 169.113 150.76 169.307 150.796 169.5C157.262 171.135 163.728 172.775 170.553 174.498V174.504ZM89.7866 169.453L89.7748 168.873C84.0676 167.49 78.3544 166.113 72.5177 164.701C71.6528 168.07 70.8526 171.182 70.0053 174.48C76.7776 172.758 83.2791 171.105 89.7807 169.453H89.7866Z" fill="#00B840"/>
<path d="M121.677 0C124.295 1.45312 125.083 3.70898 125.007 6.61523C124.86 12.293 124.983 17.9824 124.96 23.666C124.942 27.1758 122.995 29.4492 120.153 29.3613C117.37 29.2734 115.593 27.0996 115.581 23.666C115.558 17.9824 115.675 12.2988 115.534 6.61523C115.458 3.70312 116.246 1.45312 118.864 0H121.683H121.677Z" fill="#00B840"/>
<path d="M178.185 23.6425C177.261 25.289 176.843 26.6191 175.972 27.5039C170.071 33.5097 164.099 39.4511 158.08 45.3398C155.891 47.4843 153.049 47.5019 151.178 45.6269C149.295 43.7402 149.331 40.9453 151.502 38.7539C157.427 32.7656 163.41 26.8417 169.4 20.9238C170.906 19.4355 172.883 18.7031 174.719 19.8222C176.09 20.6601 176.99 22.2773 178.185 23.6425Z" fill="#00B840"/>
<path d="M90.2867 41.0742C90.375 45.4453 86.6917 47.7481 83.5733 46.0899C82.832 45.6973 82.1671 45.1055 81.567 44.5078C76.301 39.293 71.0232 34.0899 65.8337 28.7988C64.9511 27.8965 64.2039 26.6895 63.8509 25.4883C63.286 23.584 64.1392 21.9844 65.7749 20.8828C67.3458 19.8223 69.011 19.7871 70.629 20.7715C71.288 21.1699 71.8822 21.7031 72.4294 22.2481C77.6954 27.4629 82.9791 32.6602 88.1686 37.9512C89.2041 39.0059 89.8572 40.4297 90.2867 41.0801V41.0742Z" fill="#00B840"/>
<path d="M124.93 40.9805C124.93 43.459 122.771 45.5742 120.259 45.5684C117.746 45.5684 115.593 43.4356 115.599 40.9629C115.605 38.4551 117.711 36.3984 120.271 36.3984C122.83 36.3984 124.936 38.4727 124.93 40.9746V40.9805Z" fill="#00B840"/>
</g>
<defs>
<clipPath id="clip0_312_3118">
<rect width="241" height="240" fill="white"/>
</clipPath>
</defs>
</svg>
