<svg width="240" height="240" viewBox="0 0 240 240" fill="none" xmlns="http://www.w3.org/2000/svg">
<path d="M0 178.708C0 130.063 0 81.4063 0 32.75C0.114583 32.4584 0.28125 32.1875 0.34375 31.8855C2.48958 22.2292 9.57292 16.3959 19.4896 16.3959C86.375 16.3646 153.26 16.3646 220.146 16.3959C231.448 16.3959 239.49 24.448 239.5 35.7188C239.552 82.4167 239.552 129.115 239.437 175.802C239.437 178.74 238.729 181.927 237.469 184.573C233.948 191.896 227.719 195.125 219.677 195.125C189.667 195.115 159.646 195.125 129.635 195.125C128.74 195.125 127.833 195.125 126.99 195.125V209.135H151.385V223.01H88.1354V209H112.583V195.125C111.531 195.125 110.615 195.125 109.698 195.125C79.8437 195.125 49.9792 195.104 20.125 195.146C14.6667 195.146 9.84375 193.688 5.80208 189.927C2.55208 186.875 0.979167 182.948 0 178.708ZM225.458 147.427V144.792C225.458 108.854 225.458 72.9063 225.458 36.9688C225.458 32.0313 223.938 30.4896 219.062 30.4896C152.865 30.4896 86.6771 30.4896 20.4792 30.4896C15.5937 30.4896 14.0833 32.0313 14.0833 36.9688C14.0833 72.9167 14.0833 108.854 14.0833 144.802V147.448H225.458V147.427ZM14.0833 161.885C14.0833 166.208 14.0833 170.25 14.0833 174.302C14.0833 179.688 15.4479 181.042 20.9062 181.042C86.7917 181.042 152.677 181.042 218.562 181.042C219.26 181.042 219.969 181.073 220.667 181.021C223.375 180.813 225.229 179.354 225.333 176.708C225.531 171.823 225.385 166.927 225.385 161.885H14.0833Z" fill="#00B840"/>
</svg>
