<svg width="240" height="240" viewBox="0 0 240 240" fill="none" xmlns="http://www.w3.org/2000/svg">
<path d="M179.65 29.9437C175.938 29.9437 172.594 29.9625 169.244 29.9437C166.356 29.925 164.625 28.4312 164.7 26.0875C164.775 23.825 166.425 22.475 169.244 22.4687C178.6 22.45 187.956 22.4562 197.313 22.4687C200.825 22.4687 202.1 23.7437 202.106 27.2625C202.113 46.1312 202.106 65 202.106 83.8687C202.106 84.725 202.106 85.575 202.106 86.4312C202.238 86.5 202.369 86.5687 202.5 86.6375C203.019 85.7562 203.531 84.8687 204.063 83.9937C208.481 76.6875 217.369 74.2875 224.563 78.4562C231.663 82.5687 234.163 91.4312 230.075 98.7687C225.719 106.594 221.163 114.306 216.65 122.044C215.313 124.337 213.3 125 211.375 123.944C209.375 122.85 208.888 120.637 210.219 118.269C212.088 114.944 214.025 111.656 216.069 108.106C211.788 105.625 207.563 103.181 203.119 100.606C189.419 124.337 175.756 147.994 161.956 171.9C166.275 174.4 170.475 176.831 174.85 179.362C175.363 178.537 175.819 177.831 176.238 177.106C184.65 162.537 193.063 147.969 201.475 133.4C201.788 132.862 202.069 132.3 202.425 131.787C203.706 129.937 205.725 129.406 207.506 130.425C209.281 131.444 209.925 133.5 208.85 135.494C207.038 138.85 204.988 142.081 203.206 145.456C202.588 146.631 202.163 148.069 202.163 149.387C202.1 175.119 202.119 200.85 202.119 226.581C202.119 231 201.063 232.044 196.575 232.044C145.35 232.044 94.1188 232.044 42.8938 232.044C38.475 232.044 37.4438 230.994 37.4438 226.5C37.4438 198.975 37.4438 171.45 37.4438 143.925C37.4438 143.3 37.4125 142.675 37.4688 142.056C37.6688 139.975 39.1625 138.531 41.1125 138.494C43.15 138.456 44.7188 139.944 44.9063 142.15C44.9625 142.85 44.9313 143.55 44.9313 144.256C44.9313 169.987 44.9313 195.719 44.9313 221.45V224.394H194.506V160.475C191.919 164.962 189.581 168.944 187.35 172.987C187.013 173.6 187.163 174.512 187.163 175.281C187.15 187.525 187.163 199.762 187.156 212.006C187.156 215.85 185.95 217.075 182.163 217.075C140.606 217.075 99.0438 217.075 57.4875 217.075C53.575 217.075 52.425 215.881 52.425 211.844C52.425 185.956 52.425 160.069 52.425 134.181C52.425 133.25 52.425 132.312 52.425 131.137C51.7063 131.087 51.0438 131 50.3813 131C46.4063 130.987 42.425 131.031 38.45 130.975C35.825 130.937 34.425 129.556 34.2938 126.937C34.2125 125.381 34.1438 123.806 34.3063 122.262C34.4875 120.531 33.7938 119.637 32.3063 118.806C31.0438 118.094 30.1375 118.025 28.9563 118.819C27.5375 119.775 26.0313 120.606 24.5125 121.394C22.3313 122.525 20.4813 122.137 19.2625 120.081C15.4563 113.644 11.725 107.169 8.05002 100.656C6.93752 98.6812 7.50002 96.8687 9.41877 95.5937C10.7125 94.7312 12.0438 93.8687 13.4625 93.2625C15.2438 92.4937 15.725 91.3187 15.65 89.4437C15.5938 88.0687 15.1875 87.3187 14.0125 86.7187C12.4875 85.9437 11 85.075 9.56252 84.15C7.50002 82.825 6.91252 81.0062 8.08127 78.9375C11.7563 72.425 15.4938 65.95 19.3063 59.5125C20.4688 57.55 22.325 57.1437 24.375 58.175C25.7625 58.875 27.0875 59.7125 28.4375 60.4875C29.6125 61.1625 30.55 61.95 32.1875 60.9625C33.8438 59.9687 34.475 58.9312 34.3063 57.1C34.175 55.6312 34.1063 54.1125 34.35 52.6687C34.5313 51.5937 34.9813 50.1 35.775 49.6875C37.475 48.8125 37.4875 47.5812 37.475 46.0625C37.4375 39.75 37.4438 33.4312 37.4625 27.1125C37.475 23.7625 38.775 22.4625 42.15 22.4562C54.625 22.4437 67.1 22.4562 79.575 22.4562C80.425 22.4562 81.275 22.4562 82.0875 22.4562C83.7188 16.4812 85.7375 14.9687 91.9375 14.9687C94.8938 14.9687 97.85 14.9687 100.769 14.9687C102.525 8.9437 104.469 7.4812 110.619 7.4812C116.856 7.4812 123.094 7.4812 129.331 7.4812C135.081 7.4812 137.319 9.2312 138.731 14.9687C142.188 14.9687 145.688 14.95 149.188 14.9687C154.106 15.0062 157.175 18.0875 157.213 23.025C157.238 26.4562 157.25 29.8875 157.213 33.3187C157.156 37.9875 154.075 41.1375 149.438 41.1437C129.713 41.175 109.981 41.175 90.2563 41.1437C85.4938 41.1437 82.4313 37.9812 82.3688 33.1812C82.3563 32.1812 82.3688 31.1875 82.3688 30.0562H60.1V48.3625C63.6688 49.4125 64.2 50.1187 64.2125 53.8812C64.2125 55.1312 64.3063 56.3875 64.1875 57.6187C64.05 59.0687 64.7063 59.7687 65.8688 60.5625C67.4063 61.6062 68.5813 61.5875 70.0313 60.5437C71.2875 59.6375 72.6875 58.9125 74.0688 58.2C76.2438 57.0812 78.0938 57.4687 79.3188 59.5437C83.0813 65.9125 86.7688 72.3312 90.4063 78.775C91.575 80.8437 90.925 83.0375 89.0875 84.0437C87.2188 85.0625 85.1438 84.4687 83.9063 82.3812C81.2938 77.9562 78.7625 73.4812 76.1875 69.0312C75.725 68.2312 75.225 67.4437 74.575 66.3687C70.6625 69.5625 67.2688 70.5 62.2438 67.475C57.4125 64.5625 55.775 61.5062 57.0438 56.1312H41.5938C42.4125 61.25 41.4063 64.6 36.3813 67.475C31.3938 70.3375 27.9813 69.7375 23.9563 66.35C21.3625 70.8312 18.9563 74.9875 16.35 79.4812C20.6188 81.5437 24.9625 83.7312 23.05 89.7375C24.8313 95.6812 21 98.1812 16.3063 100.069C18.8875 104.537 21.2938 108.7 23.925 113.256C27.8813 110.125 31.3125 109.125 36.4125 112.169C41.3563 115.119 42.4625 118.387 41.5563 123.337C42.4625 123.412 42.9125 123.487 43.3625 123.487C47.7125 123.494 52.0688 123.487 56.8625 123.487C56.0063 118.344 57.2563 115.019 62.2563 112.094C67.2938 109.15 70.675 109.994 74.4938 113.212C74.9375 112.587 75.1875 112.287 75.375 111.956C77.6 108.119 79.8125 104.275 82.1625 100.206C80.5 99.2125 78.9063 98.2937 77.35 97.3125C75.3 96.025 74.65 93.9875 75.65 92.1437C76.7125 90.1812 78.8625 89.6375 81.1063 90.875C83.6938 92.3062 86.2563 93.8 88.7875 95.3312C91.1188 96.7437 91.6875 98.55 90.3813 100.869C86.7875 107.244 83.1313 113.594 79.4188 119.906C78.1375 122.087 76.275 122.512 74.0063 121.337C72.7625 120.694 71.5688 119.95 70.3563 119.25C66.8375 117.225 64.2188 118.706 64.2125 122.719C64.2125 123.887 64.225 125.056 64.2125 126.225C64.175 129.487 63.4 130.4 60.0063 131.106V209.362H179.513V186.856C178.694 187.394 177.906 187.919 177.119 188.437C170.875 192.556 164.619 196.656 158.4 200.806C156.813 201.862 155.244 202.6 153.431 201.494C151.725 200.462 151.531 198.8 151.65 196.994C152.138 189.212 152.544 181.431 153.113 173.656C153.206 172.406 153.813 171.112 154.456 169.994C162.481 156.012 170.575 142.062 178.594 128.075C179.181 127.05 179.638 125.769 179.638 124.612C179.694 93.6562 179.681 62.7 179.681 31.75V29.9062L179.65 29.9437ZM130.856 15.0687H108.744C107.344 20.7 105.1 22.4562 99.3688 22.4562C96.2125 22.4562 93.0563 22.4562 89.9563 22.4562V33.5312H149.525V22.5812C149.194 22.525 149.044 22.475 148.888 22.475C145.85 22.4687 142.806 22.4625 139.769 22.4562C134.456 22.45 131.969 20.4062 130.856 15.0687ZM187.2 112.3C187.338 112.35 187.475 112.4 187.613 112.45C189.594 109.025 191.656 105.65 193.513 102.162C194.138 100.994 194.563 99.5562 194.569 98.2375C194.631 76.3437 194.613 54.45 194.613 32.5562V30.1312H187.194V112.3H187.2ZM206.819 94.1187C211.269 96.6875 215.463 99.1125 219.825 101.631C221.294 99.025 222.813 96.675 223.988 94.1625C225.569 90.775 224.15 86.7312 220.969 84.8375C217.838 82.975 213.656 83.5312 211.5 86.4437C209.763 88.7875 208.438 91.425 206.819 94.1187ZM52.2375 48.55V30.1312H45.0375V48.55H52.2375ZM160.188 179.562C159.956 183.6 159.756 187.125 159.525 191.112C162.875 188.9 165.856 186.925 169.156 184.737C166.075 182.956 163.306 181.362 160.181 179.556L160.188 179.562Z" fill="#00B840"/>
<path d="M101.05 108.538C101.05 105.181 101.05 102.15 101.05 99.1125C101.05 94.6063 102.075 93.5687 106.494 93.5625C112.575 93.5625 118.656 93.5625 124.737 93.5625H127.131V86.075C126.325 86.075 125.5 86.075 124.681 86.075C118.369 86.075 112.05 86.0875 105.737 86.075C102.375 86.0625 101.069 84.7563 101.056 81.4063C101.037 74.5438 101.037 67.6813 101.056 60.825C101.062 57.4625 102.362 56.15 105.725 56.15C122.562 56.1375 139.406 56.1375 156.244 56.15C159.606 56.15 160.919 57.4625 160.925 60.8125C160.944 67.675 160.944 74.5375 160.925 81.3937C160.919 84.75 159.606 86.0688 156.256 86.075C149.175 86.0938 142.094 86.075 134.875 86.075V93.5625C141.1 93.5625 147.237 93.5625 153.375 93.5625C154.469 93.5625 155.556 93.5375 156.65 93.5625C159.537 93.6375 160.894 94.9938 160.925 97.9313C160.963 101.35 160.931 104.775 160.931 108.525C163.275 108.525 165.506 108.5 167.731 108.525C170.781 108.569 172.137 109.913 172.15 112.981C172.175 120 172.181 127.012 172.15 134.031C172.137 137.075 170.756 138.412 167.694 138.456C165.525 138.488 163.362 138.456 160.931 138.456C160.931 141.969 160.944 145.294 160.931 148.619C160.912 152.137 159.65 153.419 156.144 153.419C145.387 153.431 134.631 153.419 123.694 153.419V160.906C125.8 160.906 127.956 160.894 130.106 160.906C133.031 160.931 134.75 162.356 134.719 164.694C134.687 167.013 132.975 168.375 130.006 168.381C124.181 168.394 118.35 168.381 112.406 168.381V175.869C113.131 175.869 113.875 175.869 114.612 175.869C119.912 175.869 125.219 175.844 130.519 175.881C133.094 175.9 134.719 177.4 134.719 179.6C134.719 181.794 133.094 183.325 130.531 183.338C123.356 183.375 116.187 183.375 109.012 183.338C106.244 183.325 104.837 181.906 104.812 179.144C104.769 174.469 104.769 169.787 104.812 165.112C104.837 162.337 106.237 160.975 109.006 160.906C111.187 160.85 113.369 160.856 115.55 160.831C115.612 160.831 115.681 160.763 115.887 160.644V153.525H86.2562V160.9C88.5 160.9 90.7375 160.869 92.9687 160.906C95.8875 160.95 97.2812 162.306 97.3062 165.206C97.35 169.806 97.3437 174.406 97.3062 179.006C97.2812 181.925 95.9 183.325 93 183.338C85.9062 183.375 78.8125 183.369 71.7125 183.338C68.7937 183.325 67.4062 181.938 67.3812 179.031C67.3437 174.431 67.3437 169.831 67.3812 165.231C67.4062 162.306 68.775 160.95 71.6812 160.9C73.8625 160.863 76.0437 160.894 78.5937 160.894C78.5937 157.744 78.5937 154.662 78.5937 151.581C78.5937 146.919 79.575 145.919 84.1562 145.919C106.219 145.919 128.287 145.919 150.35 145.919H153.287V138.431C151.025 138.431 148.787 138.463 146.55 138.425C143.637 138.375 142.244 137.019 142.231 134.106C142.2 127.013 142.2 119.919 142.231 112.819C142.244 109.9 143.625 108.544 146.544 108.494C148.725 108.456 150.9 108.488 153.269 108.488V101.156H108.662V108.488C110.85 108.488 113.075 108.463 115.3 108.488C118.369 108.525 119.744 109.856 119.756 112.906C119.787 119.925 119.787 126.938 119.756 133.956C119.744 137.019 118.381 138.4 115.337 138.413C108.319 138.444 101.306 138.438 94.2875 138.413C91.2187 138.4 89.85 137.037 89.8375 133.994C89.8062 126.975 89.8125 119.963 89.8375 112.944C89.85 109.875 91.2 108.531 94.2562 108.488C96.425 108.456 98.5937 108.488 101.056 108.488L101.05 108.538ZM153.344 63.7938H108.725V78.4688H153.344V63.7938ZM97.4875 116.113V130.875H112.137V116.113H97.4875ZM164.481 130.944V116.181H149.881V130.944H164.481ZM74.9562 175.744H89.6312V168.544H74.9562V175.744Z" fill="#00B840"/>
<path d="M64.1688 89.9C64.1438 98.2125 57.4438 104.837 49.1125 104.794C41 104.75 34.2563 97.9812 34.2563 89.8625C34.2563 81.6125 41.0063 74.8625 49.2688 74.8562C57.5563 74.85 64.1938 81.55 64.1625 89.9H64.1688ZM56.6813 89.8187C56.6938 85.725 53.3688 82.3562 49.3063 82.3437C45.225 82.3312 41.8313 85.6437 41.7563 89.7062C41.675 93.8312 45.1563 97.3187 49.3125 97.2875C53.4063 97.2562 56.675 93.95 56.6813 89.8125V89.8187Z" fill="#00B840"/>
</svg>
